<svg version="1.1" width="50.000000" height="50.500000" viewBox="0.000000 0.000000 50.000000 50.500000" xmlns="http://www.w3.org/2000/svg" xmlns:xlink="http://www.w3.org/1999/xlink" overflow="hidden"><defs></defs><path d=" M 31.200001 50.500000 C 31.000000 50.500000 30.799999 50.500000 30.700001 50.400002 L 25.000000 47.000000 L 19.299999 50.400002 C 19.000000 50.599998 18.600000 50.599998 18.299999 50.400002 L 6.500000 43.200001 C 6.200000 43.000000 6.000000 42.700001 6.000000 42.400002 L 6.000000 35.200001 L 0.500000 32.000000 C 0.200000 31.900000 0.000000 31.500000 0.000000 31.200001 L 0.000000 30.700001 C 0.000000 30.700001 0.000000 30.700001 0.000000 30.600000 L 0.000000 19.900000 C 0.000000 19.900000 0.000000 19.900000 0.000000 19.799999 L 0.000000 19.299999 C 0.000000 18.900000 0.200000 18.600000 0.500000 18.400000 L 6.000000 15.400000 L 6.000000 8.200000 C 6.000000 7.900000 6.200000 7.500000 6.500000 7.300000 L 18.299999 0.100000 C 18.600000 -0.100000 19.000000 -0.100000 19.299999 0.100000 L 25.000000 3.600000 L 30.700001 0.200000 C 31.000000 0.000000 31.400000 0.000000 31.700001 0.200000 L 43.500000 7.400000 C 43.799999 7.500000 44.000000 7.800000 44.000000 8.200000 L 44.000000 15.400000 L 49.500000 18.500000 C 49.799999 18.700001 50.000000 19.000000 50.000000 19.400000 L 50.000000 19.900000 C 50.000000 19.900000 50.000000 19.900000 50.000000 20.000000 L 50.000000 30.600000 C 50.000000 30.600000 50.000000 30.600000 50.000000 30.700001 L 50.000000 31.200001 C 50.000000 31.600000 49.799999 31.900000 49.500000 32.099998 L 44.000000 35.200001 L 44.000000 42.400002 C 44.000000 42.700001 43.799999 43.099998 43.500000 43.299999 L 31.700001 50.500000 C 31.600000 50.500000 31.400000 50.500000 31.200001 50.500000 Z M 26.000000 45.200001 L 31.200001 48.299999 L 42.000000 41.799999 L 42.000000 34.599998 C 42.000000 34.200001 42.200001 33.900002 42.500000 33.700001 L 46.900002 31.200001 L 43.200001 29.100000 C 42.700001 29.500000 42.000000 29.799999 41.299999 29.799999 C 39.700001 29.799999 38.400002 28.500000 38.400002 26.900000 C 38.400002 25.299999 39.700001 24.000000 41.299999 24.000000 C 42.900002 24.000000 44.200001 25.299999 44.200001 26.900000 C 44.200001 27.000000 44.200001 27.200001 44.200001 27.299999 L 48.000000 29.400000 L 48.000000 19.900000 L 42.500000 16.799999 C 42.200001 16.600000 42.000000 16.299999 42.000000 16.000000 L 42.000000 13.300000 L 39.200001 13.300000 C 38.799999 14.400000 37.700001 15.200000 36.500000 15.200000 C 34.900002 15.200000 33.599998 13.900000 33.599998 12.300000 C 33.599998 10.700000 34.900002 9.400000 36.500000 9.400000 C 37.700001 9.400000 38.799999 10.200000 39.200001 11.300000 L 42.000000 11.300000 L 42.000000 8.700000 L 31.200001 2.200000 L 26.000000 5.300000 L 26.000000 16.299999 L 31.600000 19.500000 C 32.099998 19.100000 32.700001 18.900000 33.299999 18.900000 C 34.900002 18.900000 36.200001 20.200001 36.200001 21.799999 C 36.200001 23.400000 34.900002 24.700001 33.299999 24.700001 C 31.700001 24.700001 30.400000 23.400000 30.400000 21.799999 C 30.400000 21.600000 30.400000 21.400000 30.500000 21.200001 L 24.500000 17.700001 C 24.200001 17.500000 24.000000 17.200001 24.000000 16.799999 L 24.000000 5.200000 L 18.799999 2.100000 L 14.000000 5.100000 L 14.000000 12.200000 L 12.000000 12.200000 L 12.000000 6.300000 L 8.000000 8.700000 L 8.000000 15.300000 L 13.000000 18.100000 L 18.000000 15.300000 L 18.000000 10.200000 L 20.000000 10.200000 L 20.000000 15.900000 C 20.000000 16.299999 19.799999 16.600000 19.500000 16.799999 L 14.000000 19.900000 L 14.000000 24.700001 L 19.600000 28.299999 C 19.900000 28.500000 20.100000 28.799999 20.100000 29.100000 L 20.100000 32.500000 L 24.100000 30.100000 L 24.100000 25.900000 L 18.799999 22.799999 L 19.799999 21.100000 L 25.600000 24.500000 C 25.900000 24.700001 26.100000 25.000000 26.100000 25.400000 L 26.100000 35.799999 L 26.100000 38.400002 L 30.700001 38.400002 C 31.100000 37.299999 32.200001 36.500000 33.400002 36.500000 C 35.000000 36.500000 36.299999 37.799999 36.299999 39.400002 C 36.299999 41.000000 34.799999 42.000000 33.299999 42.000000 C 32.099998 42.000000 31.000000 41.400002 30.600000 40.299999 L 26.000000 40.299999 L 26.000000 45.200001 Z M 14.600000 45.799999 L 18.799999 48.400002 L 24.000000 45.299999 L 24.000000 32.500000 L 12.800000 39.000000 L 11.800000 37.299999 L 18.000000 33.700001 L 18.000000 29.700001 L 13.000000 26.400000 L 7.400000 29.500000 L 6.400000 27.799999 L 12.000000 24.700001 L 12.000000 20.000000 L 7.000000 17.200001 L 2.000000 20.000000 L 2.000000 23.600000 L 6.300000 21.100000 L 7.300000 22.799999 L 2.000000 25.900000 L 2.000000 30.600000 L 7.000000 33.400002 L 12.100000 30.400000 L 13.100000 32.099998 L 8.000000 35.099998 L 8.000000 41.700001 L 12.500000 44.500000 L 17.700001 41.400002 L 17.799999 41.500000 L 18.000000 41.400002 L 19.000000 43.099998 L 14.600000 45.799999 Z M 33.299999 38.400002 C 32.799999 38.400002 32.400002 38.799999 32.400002 39.299999 C 32.400002 39.799999 32.799999 40.200001 33.299999 40.200001 C 33.799999 40.200001 34.200001 39.799999 34.200001 39.299999 C 34.200001 38.799999 33.700001 38.400002 33.299999 38.400002 Z M 41.400002 26.100000 C 40.900002 26.100000 40.500000 26.500000 40.500000 27.000000 C 40.500000 27.500000 40.900002 27.900000 41.400002 27.900000 C 41.900002 27.900000 42.299999 27.500000 42.299999 27.000000 C 42.299999 26.500000 41.799999 26.100000 41.400002 26.100000 Z M 33.299999 20.900000 C 32.799999 20.900000 32.400002 21.299999 32.400002 21.799999 C 32.400002 22.299999 32.799999 22.700001 33.299999 22.700001 C 33.799999 22.700001 34.200001 22.299999 34.200001 21.799999 C 34.200001 21.299999 33.700001 20.900000 33.299999 20.900000 Z M 36.500000 11.400000 C 36.000000 11.400000 35.599998 11.800000 35.599998 12.300000 C 35.599998 12.800000 36.000000 13.200000 36.500000 13.200000 C 37.000000 13.200000 37.400002 12.800000 37.400002 12.300000 C 37.400002 11.800000 37.000000 11.400000 36.500000 11.400000 Z" stroke="none" stroke-width="1.000000" stroke-dasharray="" stroke-dashoffset="1.000000" fill="#FFC000" fill-opacity="0.658824"/></svg>